<svg width="24" height="25" viewBox="0 0 24 25" fill="none" xmlns="http://www.w3.org/2000/svg">
<path d="M12 12.8928C14.7614 12.8928 17 10.6542 17 7.89282C17 5.1314 14.7614 2.89282 12 2.89282C9.23858 2.89282 7 5.1314 7 7.89282C7 10.6542 9.23858 12.8928 12 12.8928Z" stroke="black" stroke-width="1.5" stroke-linecap="round" stroke-linejoin="round"/>
<path d="M3.40991 22.8928C3.40991 19.0228 7.25994 15.8928 11.9999 15.8928C12.9599 15.8928 13.8899 16.0228 14.7599 16.2628" stroke="black" stroke-width="1.5" stroke-linecap="round" stroke-linejoin="round"/>
<path d="M22 18.8928C22 19.2128 21.96 19.5228 21.88 19.8228C21.79 20.2228 21.63 20.6128 21.42 20.9528C20.73 22.1128 19.46 22.8928 18 22.8928C16.97 22.8928 16.04 22.5028 15.34 21.8628C15.04 21.6028 14.78 21.2928 14.58 20.9528C14.21 20.3528 14 19.6428 14 18.8928C14 17.8128 14.43 16.8228 15.13 16.1028C15.86 15.3528 16.88 14.8928 18 14.8928C19.18 14.8928 20.25 15.4028 20.97 16.2228C21.61 16.9328 22 17.8728 22 18.8928Z" stroke="black" stroke-width="1.5" stroke-miterlimit="10" stroke-linecap="round" stroke-linejoin="round"/>
<path d="M19.49 18.8728H16.51" stroke="black" stroke-width="1.5" stroke-miterlimit="10" stroke-linecap="round" stroke-linejoin="round"/>
</svg>
