<svg width="47" height="47" viewBox="0 0 47 47" fill="none" xmlns="http://www.w3.org/2000/svg">
<g clip-path="url(#clip0_47_5229)">
<path d="M23.5018 0C16.4753 0.00862891 10.7812 5.70261 10.7726 12.7292V20.5625C10.7726 21.1033 11.211 21.5417 11.7518 21.5417H15.6685C16.2093 21.5417 16.6477 21.1033 16.6477 20.5625V12.7292C16.6476 8.94368 19.7164 5.875 23.5018 5.875C27.2872 5.875 30.356 8.94368 30.356 12.7292V20.5625C30.356 21.1033 30.7944 21.5417 31.3352 21.5417H35.2518C35.7926 21.5417 36.231 21.1033 36.231 20.5625V12.7292C36.2223 5.70261 30.5283 0.00862891 23.5018 0Z" fill="#434343"/>
<path d="M11.7482 19.5837H35.2482C37.9521 19.5837 40.144 21.7757 40.144 24.4795V42.1045C40.144 44.8085 37.9521 47.0004 35.2482 47.0004H11.7482C9.04434 47.0004 6.85242 44.8085 6.85242 42.1046V24.4796C6.85242 21.7757 9.04434 19.5837 11.7482 19.5837Z" fill="#FFC107"/>
<path d="M28.3941 30.3538C28.4054 27.6499 26.2228 25.4487 23.5189 25.4373C20.815 25.4259 18.6138 27.6086 18.6025 30.3124C18.5946 32.1814 19.6514 33.8918 21.3264 34.7208L20.5705 40.0083C20.4948 40.5438 20.8675 41.0392 21.4029 41.1149C21.4483 41.1213 21.4941 41.1246 21.5399 41.1246H25.4566C25.9973 41.1301 26.4402 40.6961 26.4456 40.1554C26.446 40.1055 26.4428 40.0557 26.4357 40.0064L25.6797 34.7189C27.3343 33.8909 28.3833 32.2037 28.3941 30.3538Z" fill="#434343"/>
</g>
<defs>
<clipPath id="clip0_47_5229">
<rect width="47" height="47" fill="white"/>
</clipPath>
</defs>
</svg>
