<svg width="24" height="25" viewBox="0 0 24 25" fill="none" xmlns="http://www.w3.org/2000/svg">
<path d="M12.02 3.80249C8.70997 3.80249 6.01997 6.49249 6.01997 9.80249V12.6925C6.01997 13.3025 5.75997 14.2325 5.44997 14.7525L4.29997 16.6625C3.58997 17.8425 4.07997 19.1525 5.37997 19.5925C9.68997 21.0325 14.34 21.0325 18.65 19.5925C19.86 19.1925 20.39 17.7625 19.73 16.6625L18.58 14.7525C18.28 14.2325 18.02 13.3025 18.02 12.6925V9.80249C18.02 6.50249 15.32 3.80249 12.02 3.80249Z" stroke="black" stroke-width="1.5" stroke-miterlimit="10" stroke-linecap="round"/>
<path d="M13.87 4.09252C13.56 4.00252 13.24 3.93252 12.91 3.89252C11.95 3.77252 11.03 3.84252 10.17 4.09252C10.46 3.35252 11.18 2.83252 12.02 2.83252C12.86 2.83252 13.58 3.35252 13.87 4.09252Z" stroke="black" stroke-width="1.5" stroke-miterlimit="10" stroke-linecap="round" stroke-linejoin="round"/>
<path d="M15.02 19.9526C15.02 21.6026 13.67 22.9526 12.02 22.9526C11.2 22.9526 10.44 22.6126 9.90002 22.0726C9.36002 21.5326 9.02002 20.7726 9.02002 19.9526" stroke="black" stroke-width="1.5" stroke-miterlimit="10"/>
</svg>
