<svg width="22" height="22" viewBox="0 0 22 22" fill="none" xmlns="http://www.w3.org/2000/svg">
<path d="M2.9889 13.553L1.46891 12.033C0.848906 11.413 0.848906 10.393 1.46891 9.77298L2.9889 8.25296C3.2489 7.99296 3.4589 7.48296 3.4589 7.12296V4.97293C3.4589 4.09293 4.1789 3.37296 5.0589 3.37296H7.2089C7.5689 3.37296 8.0789 3.16299 8.3389 2.90299L9.85889 1.38297C10.4789 0.762969 11.4989 0.762969 12.1189 1.38297L13.6389 2.90299C13.8989 3.16299 14.4089 3.37296 14.7689 3.37296H16.9189C17.7989 3.37296 18.5189 4.09293 18.5189 4.97293V7.12296C18.5189 7.48296 18.7289 7.99296 18.9889 8.25296L20.5089 9.77298C21.1289 10.393 21.1289 11.413 20.5089 12.033L18.9889 13.553C18.7289 13.813 18.5189 14.323 18.5189 14.683V16.8329C18.5189 17.7129 17.7989 18.433 16.9189 18.433H14.7689C14.4089 18.433 13.8989 18.643 13.6389 18.903L12.1189 20.423C11.4989 21.043 10.4789 21.043 9.85889 20.423L8.3389 18.903C8.0789 18.643 7.5689 18.433 7.2089 18.433H5.0589C4.1789 18.433 3.4589 17.7129 3.4589 16.8329V14.683C3.4589 14.313 3.2489 13.803 2.9889 13.553Z" stroke="black" stroke-width="1.5" stroke-linecap="round" stroke-linejoin="round"/>
</svg>
