<svg width="24" height="35" viewBox="0 0 24 35" fill="none" xmlns="http://www.w3.org/2000/svg">
<g clip-path="url(#clip0_141_91127)">
<path fill-rule="evenodd" clip-rule="evenodd" d="M4.5165 3.06738H15.0622L24 12.3835V30.5035C24 32.7734 22.1636 34.6099 19.9015 34.6099H4.5165C2.24658 34.6099 0.410156 32.7734 0.410156 30.5035V7.17372C0.410116 4.90381 2.24654 3.06738 4.5165 3.06738V3.06738Z" fill="#E5252A"/>
<path opacity="0.302" fill-rule="evenodd" clip-rule="evenodd" d="M15.0566 3.06738V12.3126H24.0024L15.0566 3.06738Z" fill="white"/>
<path d="M4.97656 26.6018V20.8403H7.42777C8.03467 20.8403 8.51546 21.0058 8.87801 21.3448C9.24056 21.6758 9.42186 22.1251 9.42186 22.6846C9.42186 23.2442 9.24056 23.6935 8.87801 24.0245C8.51546 24.3635 8.03467 24.529 7.42777 24.529H6.45044V26.6018H4.97656ZM6.45044 23.2758H7.26226C7.48293 23.2758 7.65633 23.2285 7.77458 23.1182C7.89279 23.0157 7.95588 22.8738 7.95588 22.6847C7.95588 22.4955 7.89283 22.3537 7.77458 22.2512C7.65637 22.1408 7.48297 22.0936 7.26226 22.0936H6.45044V23.2758ZM10.0287 26.6018V20.8403H12.0701C12.472 20.8403 12.8504 20.8955 13.205 21.0137C13.5597 21.1319 13.8829 21.2975 14.1666 21.5261C14.4503 21.7467 14.6789 22.0462 14.8444 22.4246C15.002 22.8029 15.0888 23.2364 15.0888 23.725C15.0888 24.2058 15.0021 24.6393 14.8444 25.0176C14.6789 25.3959 14.4503 25.6954 14.1666 25.9161C13.8828 26.1447 13.5597 26.3102 13.205 26.4284C12.8504 26.5466 12.472 26.6018 12.0701 26.6018H10.0287ZM11.4711 25.3487H11.8967C12.1252 25.3487 12.338 25.325 12.5351 25.2698C12.7242 25.2147 12.9055 25.128 13.0789 25.0098C13.2444 24.8916 13.3784 24.726 13.473 24.5053C13.5676 24.2847 13.6149 24.0245 13.6149 23.725C13.6149 23.4176 13.5676 23.1576 13.473 22.9369C13.3784 22.7162 13.2444 22.5507 13.0789 22.4325C12.9055 22.3142 12.7243 22.2275 12.5351 22.1724C12.338 22.1172 12.1252 22.0935 11.8967 22.0935H11.4711V25.3487ZM15.8296 26.6018V20.8403H19.9281V22.0935H17.3035V23.0157H19.4V24.261H17.3035V26.6018H15.8296Z" fill="white"/>
</g>
<defs>
<clipPath id="clip0_141_91127">
<rect width="24" height="35" fill="white"/>
</clipPath>
</defs>
</svg>
