<svg width="18" height="19" viewBox="0 0 18 19" fill="none" xmlns="http://www.w3.org/2000/svg">
<path d="M0 18.8921H3.75L14.81 7.83209L11.06 4.08209L0 15.1421V18.8921ZM2 15.9721L11.06 6.91209L11.98 7.83209L2.92 16.8921H2V15.9721ZM15.37 1.18209C15.2775 1.08939 15.1676 1.01584 15.0466 0.96566C14.9257 0.915478 14.796 0.889648 14.665 0.889648C14.534 0.889648 14.4043 0.915478 14.2834 0.96566C14.1624 1.01584 14.0525 1.08939 13.96 1.18209L12.13 3.01209L15.88 6.76209L17.71 4.93209C17.8027 4.83958 17.8762 4.72969 17.9264 4.60872C17.9766 4.48774 18.0024 4.35806 18.0024 4.22709C18.0024 4.09612 17.9766 3.96644 17.9264 3.84547C17.8762 3.72449 17.8027 3.61461 17.71 3.52209L15.37 1.18209Z" fill="#393939"/>
</svg>
