<svg width="34" height="34" viewBox="0 0 34 34" fill="none" xmlns="http://www.w3.org/2000/svg">
<circle cx="16.5578" cy="17.3926" r="15" fill="#395E66" stroke="#395E66" stroke-width="3"/>
<path fill-rule="evenodd" clip-rule="evenodd" d="M14.2621 23.417L21.9502 13.4748C22.3681 12.9387 22.5166 12.3188 22.3774 11.6877C22.2566 11.1139 21.9038 10.5684 21.3746 10.1545L20.0839 9.12926C18.9604 8.23569 17.5677 8.32975 16.7691 9.355L15.9056 10.4753C15.7942 10.6154 15.8221 10.8223 15.9613 10.9352C15.9613 10.9352 18.1433 12.6847 18.1898 12.7224C18.3383 12.8634 18.4497 13.0516 18.4776 13.2773C18.524 13.7194 18.2176 14.1333 17.7626 14.1897C17.5491 14.2179 17.3448 14.1521 17.1962 14.0298L14.9028 12.205C14.7914 12.1213 14.6243 12.1392 14.5314 12.2521L9.08105 19.3066C8.72821 19.7486 8.6075 20.3224 8.72821 20.8774L9.4246 23.8967C9.46174 24.0566 9.60101 24.1695 9.76815 24.1695L12.8322 24.1318C13.3893 24.1224 13.9093 23.8685 14.2621 23.417ZM18.5511 22.4766H23.5474C24.0349 22.4766 24.4314 22.8782 24.4314 23.372C24.4314 23.8668 24.0349 24.2675 23.5474 24.2675H18.5511C18.0637 24.2675 17.6672 23.8668 17.6672 23.372C17.6672 22.8782 18.0637 22.4766 18.5511 22.4766Z" fill="#F3F3F3"/>
</svg>
