<svg width="20" height="20" viewBox="0 0 20 20" fill="none" xmlns="http://www.w3.org/2000/svg">
<path d="M10 12.8926C6.82993 12.8926 4.0108 14.4232 2.216 16.7985C1.82971 17.3098 1.63656 17.5654 1.64288 17.9109C1.64776 18.1778 1.81536 18.5145 2.02537 18.6793C2.29719 18.8926 2.67387 18.8926 3.42724 18.8926H16.5728C17.3261 18.8926 17.7028 18.8926 17.9746 18.6793C18.1846 18.5145 18.3522 18.1778 18.3571 17.9109C18.3634 17.5654 18.1703 17.3098 17.784 16.7985C15.9892 14.4232 13.1701 12.8926 10 12.8926Z" stroke="black" stroke-width="1.5" stroke-linecap="round" stroke-linejoin="round"/>
<path d="M10 9.89258C12.4853 9.89258 14.5 7.87786 14.5 5.39258C14.5 2.9073 12.4853 0.892578 10 0.892578C7.51472 0.892578 5.5 2.9073 5.5 5.39258C5.5 7.87786 7.51472 9.89258 10 9.89258Z" stroke="black" stroke-width="1.5" stroke-linecap="round" stroke-linejoin="round"/>
</svg>
