<svg width="24" height="24" viewBox="0 0 24 24" fill="none" xmlns="http://www.w3.org/2000/svg">
<circle cx="12" cy="12" r="11.5" fill="#2F4F56" stroke="#2F4F56"/>
<path fill-rule="evenodd" clip-rule="evenodd" d="M14.867 5.33325C17.1236 5.33325 18.6403 6.91392 18.6403 9.26592V14.7006C18.6403 17.0526 17.1236 18.6333 14.867 18.6333H9.10029C6.84695 18.6333 5.33362 17.0526 5.33362 14.7006V9.26592C5.33362 6.91392 6.84695 5.33325 9.10029 5.33325H14.867ZM14.867 6.33325H9.10029C7.41962 6.33325 6.33362 7.48459 6.33362 9.26592V14.7006C6.33362 16.4826 7.41962 17.6333 9.10029 17.6333H14.867C16.5516 17.6333 17.6403 16.4826 17.6403 14.7006V9.26592C17.6403 7.48459 16.5516 6.33325 14.867 6.33325ZM15.293 12.0662C15.2972 12.0696 15.3013 12.073 15.31 12.0811L15.3229 12.0934C15.3255 12.096 15.3284 12.0988 15.3315 12.1018L15.3687 12.1388C15.489 12.2592 15.8213 12.5986 16.8116 13.6155C17.0043 13.8129 17.001 14.1295 16.803 14.3222C16.6056 14.5162 16.2883 14.5102 16.0956 14.3129C16.0956 14.3129 14.7296 12.9109 14.6323 12.8162C14.529 12.7315 14.363 12.6822 14.1996 12.6982C14.0336 12.7149 13.8843 12.7942 13.7783 12.9229C12.229 14.8022 12.2103 14.8202 12.185 14.8449C11.613 15.4062 10.6896 15.3969 10.1276 14.8235C10.1276 14.8235 9.50762 14.1942 9.49695 14.1815C9.34295 14.0389 9.06828 14.0482 8.90362 14.2222L7.88362 15.2975C7.78495 15.4015 7.65295 15.4535 7.52095 15.4535C7.39695 15.4535 7.27362 15.4082 7.17695 15.3162C6.97628 15.1269 6.96828 14.8095 7.15828 14.6102L8.17695 13.5349C8.71628 12.9622 9.62629 12.9342 10.2016 13.4742L10.8403 14.1222C11.0183 14.3022 11.3076 14.3055 11.4863 14.1295C11.5536 14.0502 13.0056 12.2869 13.0056 12.2869C13.2816 11.9522 13.671 11.7455 14.1036 11.7029C14.537 11.6649 14.9576 11.7909 15.293 12.0662ZM9.70575 8.41919C10.6271 8.41985 11.3758 9.16919 11.3758 10.0885C11.3758 11.0092 10.6264 11.7585 9.70575 11.7585C8.78508 11.7585 8.03642 11.0092 8.03642 10.0885C8.03642 9.16785 8.78508 8.41919 9.70575 8.41919ZM9.70508 9.41919C9.33642 9.41919 9.03642 9.71919 9.03642 10.0885C9.03642 10.4579 9.33642 10.7585 9.70575 10.7585C10.0751 10.7585 10.3758 10.4579 10.3758 10.0885C10.3758 9.71985 10.0751 9.41985 9.70508 9.41919Z" fill="white"/>
</svg>
