<svg width="26" height="25" viewBox="0 0 26 25" fill="none" xmlns="http://www.w3.org/2000/svg">
<path d="M24.7877 3.41639C24.4199 3.04798 23.8232 3.04735 23.4554 3.41483L12.1521 14.6884L8.07384 10.259C7.72145 9.8765 7.12565 9.85169 6.74249 10.204C6.35963 10.5564 6.33512 11.1525 6.68751 11.5354L11.43 16.6858C11.6037 16.8746 11.8467 16.9842 12.103 16.9895C12.1099 16.9898 12.1166 16.9898 12.1232 16.9898C12.3722 16.9898 12.6118 16.8909 12.7883 16.715L24.7859 4.74896C25.1546 4.38153 25.1552 3.7848 24.7877 3.41639Z" fill="#395E66"/>
<path d="M24.5578 11.5578C24.0374 11.5578 23.6156 11.9795 23.6156 12.5C23.6156 18.3537 18.8537 23.1156 13 23.1156C7.14668 23.1156 2.38442 18.3537 2.38442 12.5C2.38442 6.64668 7.14668 1.88442 13 1.88442C13.5204 1.88442 13.9422 1.46265 13.9422 0.942236C13.9422 0.421777 13.5204 0 13 0C6.10742 0 0.5 5.60742 0.5 12.5C0.5 19.3923 6.10742 25 13 25C19.8923 25 25.5 19.3923 25.5 12.5C25.5 11.9796 25.0782 11.5578 24.5578 11.5578Z" fill="#395E66"/>
</svg>
