<svg width="27" height="23" viewBox="0 0 27 23" fill="none" xmlns="http://www.w3.org/2000/svg">
<path d="M3.39348 16.0494C3.38899 15.46 5.64925 15.1754 5.522 14.593C5.74598 13.8087 4.96191 12.3524 4.51349 12.9125C4.64167 13.6177 -0.975594 15.1532 1.17107 17.7535C1.73498 18.4366 4.09945 17.9052 5.06481 17.6676L5.1506 16.8379C4.74505 16.8042 3.23138 16.8065 2.52524 16.8118L3.39348 16.0494Z" fill="url(#paint0_linear_93_6877)"/>
<g filter="url(#filter0_d_93_6877)">
<ellipse cx="5.37613" cy="11.6864" rx="0.937617" ry="1.40643" transform="rotate(-20.9828 5.37613 11.6864)" fill="url(#paint1_linear_93_6877)"/>
<path d="M5.00441 13.1423C5.32124 11.9812 4.98565 11.135 4.66383 10.8753L4.84208 10.7092C5.20753 10.827 5.4846 11.0652 5.57745 11.1696C6.01899 11.6321 5.89051 12.2633 5.77107 12.5211L5.00441 13.1423Z" fill="#171717" fill-opacity="0.56"/>
<path d="M6.49103 11.3861C7.05635 16.6691 11.2066 20.5567 15.7609 20.0694C20.3152 19.582 23.5489 14.9043 22.9835 9.62131C22.4182 4.33835 18.268 0.450723 13.7137 0.938061C6.70827 1.05057 5.92572 6.10315 6.49103 11.3861Z" fill="url(#paint2_linear_93_6877)"/>
<path d="M4.41021 11.6087C4.96872 16.828 9.06017 20.6285 13.5074 20.1526C17.9546 19.6768 21.1492 15.0966 20.5907 9.87727C20.0322 4.65792 15.9408 0.857433 11.4936 1.33331C7.04638 1.80919 3.85171 6.38934 4.41021 11.6087Z" fill="url(#paint3_linear_93_6877)" stroke="url(#paint4_linear_93_6877)" stroke-width="0.313756"/>
<g filter="url(#filter1_d_93_6877)">
<path d="M11.1885 3.07129L11.3129 4.23415" stroke="url(#paint5_linear_93_6877)" stroke-width="0.125503" stroke-linecap="round"/>
</g>
<g filter="url(#filter2_d_93_6877)">
<path d="M12.7217 17.4131L12.8357 18.479" stroke="url(#paint6_linear_93_6877)" stroke-width="0.125503" stroke-linecap="round"/>
</g>
<g filter="url(#filter3_d_93_6877)">
<path d="M5.71924 11.4961L6.59139 11.4028" stroke="url(#paint7_linear_93_6877)" stroke-width="0.125503" stroke-linecap="round"/>
</g>
<g filter="url(#filter4_d_93_6877)">
<path d="M18.3169 10.1484L19.0921 10.0655" stroke="url(#paint8_linear_93_6877)" stroke-width="0.125503" stroke-linecap="round"/>
</g>
<g filter="url(#filter5_d_93_6877)">
<path d="M6.97168 15.0176L7.6202 14.5007" stroke="url(#paint9_linear_93_6877)" stroke-width="0.0627513" stroke-linecap="round"/>
</g>
<g filter="url(#filter6_d_93_6877)">
<path d="M17.2188 6.85059L17.8673 6.33366" stroke="url(#paint10_linear_93_6877)" stroke-width="0.0627513" stroke-linecap="round"/>
</g>
<g filter="url(#filter7_d_93_6877)">
<path d="M9.52148 16.9023L9.81392 16.1263" stroke="url(#paint11_linear_93_6877)" stroke-width="0.0627513" stroke-linecap="round"/>
</g>
<g filter="url(#filter8_d_93_6877)">
<path d="M14.1406 4.63965L14.4331 3.86358" stroke="url(#paint12_linear_93_6877)" stroke-width="0.0627513" stroke-linecap="round"/>
</g>
<g filter="url(#filter9_d_93_6877)">
<g filter="url(#filter10_d_93_6877)">
<path d="M15.6733 17L15.2487 16.2876" stroke="url(#paint13_linear_93_6877)" stroke-width="0.0627513" stroke-linecap="round"/>
</g>
<g filter="url(#filter11_d_93_6877)">
<path d="M8.48877 5.55762L8.06412 4.84525" stroke="url(#paint14_linear_93_6877)" stroke-width="0.0627513" stroke-linecap="round"/>
</g>
<g filter="url(#filter12_d_93_6877)">
<path d="M18.0088 13.9023L17.2487 13.5705" stroke="url(#paint15_linear_93_6877)" stroke-width="0.0627513" stroke-linecap="round"/>
</g>
<g filter="url(#filter13_d_93_6877)">
<path d="M6.7793 8.3457L6.08065 7.89884" stroke="url(#paint16_linear_93_6877)" stroke-width="0.0627513" stroke-linecap="round"/>
</g>
</g>
<g filter="url(#filter14_i_93_6877)">
<path d="M15.2817 10.665L13.5314 10.8523C12.7084 9.07024 13.3088 7.23558 13.4219 6.87438C13.5632 6.42288 14.2968 5.59633 15.0638 7.44674C15.6775 8.92707 15.387 10.4668 15.2817 10.665Z" fill="white"/>
</g>
<ellipse cx="0.663466" cy="1.07813" rx="0.663466" ry="1.07813" transform="matrix(-0.994323 0.106399 0.106399 0.994323 14.9932 8.29297)" fill="url(#paint17_linear_93_6877)"/>
<ellipse cx="0.165867" cy="0.2488" rx="0.165867" ry="0.2488" transform="matrix(-0.994323 0.106399 0.106399 0.994323 14.2207 8.87598)" fill="white"/>
<g filter="url(#filter15_i_93_6877)">
<path d="M10.8276 11.1416L9.07727 11.3289C8.2543 9.5468 8.85466 7.71214 8.96776 7.35094C9.10913 6.89944 9.84266 6.07289 10.6097 7.9233C11.2234 9.40364 10.9329 10.9433 10.8276 11.1416Z" fill="white"/>
</g>
<ellipse cx="0.663466" cy="1.07813" rx="0.663466" ry="1.07813" transform="matrix(-0.994323 0.106399 0.106399 0.994323 10.5391 8.76953)" fill="url(#paint18_linear_93_6877)"/>
<ellipse cx="0.165867" cy="0.2488" rx="0.165867" ry="0.2488" transform="matrix(-0.994323 0.106399 0.106399 0.994323 9.7666 9.35254)" fill="white"/>
<ellipse cx="0.937617" cy="1.74069" rx="0.937617" ry="1.74069" transform="matrix(-0.988316 -0.15242 -0.15242 0.988316 22.6338 12.3242)" fill="url(#paint19_linear_93_6877)"/>
<path d="M15.6753 12.8827C15.7066 13.1754 15.6549 13.4741 15.5232 13.7617C15.3914 14.0493 15.1821 14.3202 14.9073 14.5589C14.6325 14.7977 14.2976 14.9996 13.9216 15.1531C13.5456 15.3066 13.1359 15.4088 12.7159 15.4537C12.296 15.4986 11.874 15.4855 11.474 15.415C11.074 15.3445 10.7039 15.2181 10.3848 15.0429C10.0658 14.8677 9.80391 14.6472 9.61426 14.394C9.42462 14.1407 9.31089 13.8598 9.27957 13.5671L12.4774 13.2249L15.6753 12.8827Z" fill="#4A3D37"/>
<ellipse cx="0.4976" cy="0.7464" rx="0.4976" ry="0.7464" transform="matrix(-0.994323 0.106399 0.106399 0.994323 12.6396 9.97363)" fill="url(#paint20_linear_93_6877)"/>
<path d="M9.27783 13.5674L15.6736 12.883L15.7128 13.2494C15.7312 13.4217 15.6065 13.5763 15.4342 13.5947L9.66239 14.2123C9.49009 14.2308 9.33547 14.106 9.31704 13.9337L9.27783 13.5674Z" fill="white"/>
<path d="M10.4139 15.0137C10.9852 14.5937 14.66 13.8968 14.9685 14.5263C14.4736 15.1591 12.0508 16.0395 10.4139 15.0137Z" fill="#FF5E61"/>
</g>
<path d="M23.1815 16.1337C23.1863 15.5021 20.7646 15.1972 20.9009 14.5732C20.6609 13.7329 21.501 12.1726 21.9814 12.7726C21.8441 13.5282 27.8626 15.1734 25.5626 17.9595C24.9584 18.6914 22.4251 18.122 21.3907 17.8674L21.2988 16.9785C21.7333 16.9423 23.3551 16.9448 24.1117 16.9506L23.1815 16.1337Z" fill="url(#paint21_linear_93_6877)"/>
<ellipse cx="23.3783" cy="17.6294" rx="1.19585" ry="1.79377" transform="rotate(1.31971 23.3783 17.6294)" fill="url(#paint22_linear_93_6877)"/>
<g filter="url(#filter16_i_93_6877)">
<path d="M23.5015 16.1698L21.5542 16.2105C21.1471 15.7141 20.0309 14.473 19.4178 14.0741C18.6514 13.5755 18.019 12.943 18.1952 12.4053C18.3715 11.8676 17.6542 12.0428 17.3892 12.7595C17.1243 13.4762 19.063 14.7903 18.3468 15.145C17.6306 15.4998 16.331 15.8959 16.4241 16.4353C16.4986 16.8667 16.7262 16.8861 16.8307 16.8419C16.7266 16.946 16.5188 17.2261 16.5206 17.5134C16.5223 17.8008 16.8225 17.9343 16.9723 17.9652C16.808 18.0091 16.4976 18.1509 16.5707 18.3668C16.6338 18.5531 16.9069 18.8108 17.0965 18.9556C17.0843 18.9816 17.0927 19.0071 17.1185 19.0321C16.9916 19.0701 17.0474 19.0868 17.2156 19.0919C17.4748 19.2092 18.0984 19.3053 18.7035 19.3475C18.7531 19.4925 18.8672 19.6119 19.1827 19.6401C20.2609 19.7365 20.995 19.3674 21.2616 18.92L23.2757 18.92C23.8235 18.7223 24.3357 18.11 23.6508 16.2713C23.6278 16.2095 23.5674 16.1684 23.5015 16.1698Z" fill="url(#paint23_linear_93_6877)"/>
</g>
<path d="M21.1955 18.8513C21.5715 18.4754 21.5983 17.7771 21.5983 17.5086L20.9941 18.6499L20.6584 19.1199L21.1955 18.8513Z" fill="#B6B6B6"/>
<path d="M22.268 18.5707C22.6492 18.2 22.6947 17.5114 22.702 17.2465L22.0747 18.372L21.6036 18.5776L22.268 18.5707Z" fill="#B6B6B6"/>
<path d="M22.0014 17.9121C22.1993 17.7142 22.1801 17.4265 22.1357 17.2408L21.9065 17.9303L21.7521 18.1998L22.0014 17.9121Z" fill="#B6B6B6"/>
<path d="M17.9029 13.6178C18.0079 13.5929 18.0395 13.4089 18.0472 13.2747L17.863 13.5832L17.7654 13.6726L17.9029 13.6178Z" fill="#ACABAB"/>
<path d="M17.9578 15.9088C17.8885 15.9915 17.9732 16.1579 18.0472 16.2701L18.0105 15.9127L18.0353 15.7827L17.9578 15.9088Z" fill="#ACABAB"/>
<path d="M18.0217 17.109C17.9525 17.1917 18.0372 17.3581 18.1112 17.4703L18.0745 17.1129L18.0993 16.9829L18.0217 17.109Z" fill="#ACABAB"/>
<path d="M18.1546 18.5855C18.0853 18.6683 18.17 18.8347 18.244 18.9469L18.2073 18.5894L18.2321 18.4594L18.1546 18.5855Z" fill="#ACABAB"/>
<path d="M17.3042 18.0612C17.7874 18.1646 18.1576 18.0367 18.362 17.925L17.1768 17.9821L16.6432 17.9456L17.3042 18.0612Z" fill="#ACABAB"/>
<path d="M17.7212 19.0446C18.2044 19.1479 18.5746 19.02 18.779 18.9084L17.5938 18.9655L17.0602 18.929L17.7212 19.0446Z" fill="#ACABAB"/>
<path d="M17.7778 16.8998C17.3328 17.1147 16.9428 17.078 16.7179 17.018L17.8829 16.7928L18.3927 16.6311L17.7778 16.8998Z" fill="#ACABAB"/>
<path d="M23.479 17.9912C23.7956 17.6746 23.7956 17.2449 23.7475 16.9708L23.3348 18.028L23.0762 18.4477L23.479 17.9912Z" fill="#AAAAAA"/>
<path d="M21.5974 16.302C21.6646 16.7719 21.6766 16.77 21.6655 17.0384L21.1092 15.8729L20.7918 15.3621L21.5974 16.1677L21.5974 16.302Z" fill="#AAAAAA"/>
<path d="M19.8746 16.9527C19.8056 17.4224 19.558 17.5427 19.4712 17.7968L19.6236 17.2818L19.2757 15.8501L19.8746 16.9527Z" fill="#B6B6B6"/>
<path d="M22.16 16.4663C21.7021 16.3034 21.6987 16.3158 21.4581 16.1756L22.7574 16.209L23.2787 16.2329L22.4906 16.3105L22.2827 16.5311L22.16 16.4663Z" fill="#AAAAAA"/>
<ellipse cx="1.11612" cy="1.67418" rx="1.11612" ry="1.67418" transform="matrix(-0.999735 0.0230312 0.0230312 0.999735 4.28662 15.7471)" fill="url(#paint24_linear_93_6877)"/>
<g filter="url(#filter17_i_93_6877)">
<path d="M3.10311 16.0843L4.91318 16.1221C5.29319 15.6588 6.33499 14.5004 6.9072 14.1281C7.62246 13.6627 8.21278 13.0724 8.04824 12.5706C7.88371 12.0687 8.5532 12.2322 8.8005 12.9012C9.04781 13.5701 7.23833 14.7965 7.90677 15.1277C8.57521 15.4588 9.78818 15.8285 9.70127 16.3319C9.63175 16.7346 9.41931 16.7527 9.32179 16.7114C9.41897 16.8085 9.61291 17.07 9.61126 17.3382C9.60961 17.6064 9.32947 17.731 9.18961 17.7598C9.34301 17.8008 9.63274 17.9331 9.56445 18.1347C9.50555 18.3085 9.25071 18.549 9.07375 18.6842C9.08514 18.7084 9.07729 18.7323 9.05315 18.7555C9.17163 18.7911 9.11956 18.8066 8.9626 18.8114C8.72069 18.9209 8.13864 19.0106 7.57383 19.05C7.52755 19.1853 7.42108 19.2967 7.12661 19.323C6.12032 19.413 5.43518 19.0685 5.18632 18.651L3.30653 18.651C2.79591 18.4667 2.31842 17.8965 2.95387 16.1857C2.97685 16.1238 3.03715 16.0829 3.10311 16.0843Z" fill="url(#paint25_linear_93_6877)"/>
</g>
<path d="M5.24744 18.5881C4.89654 18.2372 4.87148 17.5855 4.87148 17.3349L5.43542 18.4001L5.74871 18.8387L5.24744 18.5881Z" fill="#B6B6B6"/>
<path d="M4.247 18.3248C3.89122 17.9789 3.84875 17.3362 3.84192 17.089L4.42735 18.1393L4.86704 18.3313L4.247 18.3248Z" fill="#B6B6B6"/>
<path d="M4.49482 17.7109C4.31014 17.5263 4.32804 17.2577 4.3695 17.0843L4.58339 17.7279L4.72755 17.9795L4.49482 17.7109Z" fill="#B6B6B6"/>
<path d="M8.32069 13.7031C8.22269 13.6798 8.19325 13.5081 8.18605 13.3829L8.35795 13.6708L8.44905 13.7542L8.32069 13.7031Z" fill="#ACABAB"/>
<path d="M8.26961 15.8409C8.33425 15.9182 8.25521 16.0734 8.18612 16.1781L8.22042 15.8445L8.19725 15.7232L8.26961 15.8409Z" fill="#ACABAB"/>
<path d="M8.21004 16.961C8.27468 17.0383 8.19564 17.1935 8.12655 17.2983L8.16085 16.9646L8.13768 16.8433L8.21004 16.961Z" fill="#ACABAB"/>
<path d="M8.08602 18.3399C8.15066 18.4172 8.07162 18.5724 8.00252 18.6772L8.03682 18.3436L8.01365 18.2222L8.08602 18.3399Z" fill="#ACABAB"/>
<path d="M8.88007 17.85C8.42911 17.9465 8.08355 17.8271 7.89283 17.7229L8.99902 17.7762L9.49703 17.7421L8.88007 17.85Z" fill="#ACABAB"/>
<path d="M8.48993 18.7679C8.03898 18.8645 7.69341 18.7451 7.50269 18.6409L8.60889 18.6942L9.10689 18.6601L8.48993 18.7679Z" fill="#ACABAB"/>
<path d="M8.43686 16.7663C8.85216 16.9668 9.21616 16.9327 9.42612 16.8766L8.33876 16.6665L7.86297 16.5155L8.43686 16.7663Z" fill="#ACABAB"/>
<path d="M3.11674 17.7858C2.82125 17.4903 2.82125 17.0893 2.8661 16.8334L3.25129 17.8201L3.49269 18.2119L3.11674 17.7858Z" fill="#AAAAAA"/>
<path d="M4.87299 16.2078C4.81033 16.6464 4.79906 16.6447 4.80948 16.8951L5.32867 15.8074L5.6249 15.3306L4.87299 16.0825L4.87299 16.2078Z" fill="#AAAAAA"/>
<path d="M6.47957 16.8152C6.54399 17.2536 6.77503 17.3659 6.8561 17.6031L6.71381 17.1224L7.03855 15.7862L6.47957 16.8152Z" fill="#B6B6B6"/>
<path d="M4.3489 16.3619C4.77628 16.2098 4.7794 16.2214 5.004 16.0906L3.79129 16.1217L3.30475 16.1441L4.04027 16.2165L4.23431 16.4224L4.3489 16.3619Z" fill="#AAAAAA"/>
<defs>
<filter id="filter0_d_93_6877" x="4.18994" y="0.896484" width="18.8579" height="19.7241" filterUnits="userSpaceOnUse" color-interpolation-filters="sRGB">
<feFlood flood-opacity="0" result="BackgroundImageFix"/>
<feColorMatrix in="SourceAlpha" type="matrix" values="0 0 0 0 0 0 0 0 0 0 0 0 0 0 0 0 0 0 127 0" result="hardAlpha"/>
<feOffset dy="0.270926"/>
<feComposite in2="hardAlpha" operator="out"/>
<feColorMatrix type="matrix" values="0 0 0 0 0 0 0 0 0 0 0 0 0 0 0 0 0 0 0.25 0"/>
<feBlend mode="normal" in2="BackgroundImageFix" result="effect1_dropShadow_93_6877"/>
<feBlend mode="normal" in="SourceGraphic" in2="effect1_dropShadow_93_6877" result="shape"/>
</filter>
<filter id="filter1_d_93_6877" x="11.0627" y="2.97741" width="0.375503" height="1.41359" filterUnits="userSpaceOnUse" color-interpolation-filters="sRGB">
<feFlood flood-opacity="0" result="BackgroundImageFix"/>
<feColorMatrix in="SourceAlpha" type="matrix" values="0 0 0 0 0 0 0 0 0 0 0 0 0 0 0 0 0 0 127 0" result="hardAlpha"/>
<feOffset dy="0.0313756"/>
<feGaussianBlur stdDeviation="0.0313756"/>
<feComposite in2="hardAlpha" operator="out"/>
<feColorMatrix type="matrix" values="0 0 0 0 0 0 0 0 0 0 0 0 0 0 0 0 0 0 0.25 0"/>
<feBlend mode="normal" in2="BackgroundImageFix" result="effect1_dropShadow_93_6877"/>
<feBlend mode="normal" in="SourceGraphic" in2="effect1_dropShadow_93_6877" result="shape"/>
</filter>
<filter id="filter2_d_93_6877" x="12.5959" y="17.3192" width="0.365249" height="1.31691" filterUnits="userSpaceOnUse" color-interpolation-filters="sRGB">
<feFlood flood-opacity="0" result="BackgroundImageFix"/>
<feColorMatrix in="SourceAlpha" type="matrix" values="0 0 0 0 0 0 0 0 0 0 0 0 0 0 0 0 0 0 127 0" result="hardAlpha"/>
<feOffset dy="0.0313756"/>
<feGaussianBlur stdDeviation="0.0313756"/>
<feComposite in2="hardAlpha" operator="out"/>
<feColorMatrix type="matrix" values="0 0 0 0 0 0 0 0 0 0 0 0 0 0 0 0 0 0 0.25 0"/>
<feBlend mode="normal" in2="BackgroundImageFix" result="effect1_dropShadow_93_6877"/>
<feBlend mode="normal" in="SourceGraphic" in2="effect1_dropShadow_93_6877" result="shape"/>
</filter>
<filter id="filter3_d_93_6877" x="5.5935" y="11.3085" width="1.12355" height="0.344253" filterUnits="userSpaceOnUse" color-interpolation-filters="sRGB">
<feFlood flood-opacity="0" result="BackgroundImageFix"/>
<feColorMatrix in="SourceAlpha" type="matrix" values="0 0 0 0 0 0 0 0 0 0 0 0 0 0 0 0 0 0 127 0" result="hardAlpha"/>
<feOffset dy="0.0313756"/>
<feGaussianBlur stdDeviation="0.0313756"/>
<feComposite in2="hardAlpha" operator="out"/>
<feColorMatrix type="matrix" values="0 0 0 0 0 0 0 0 0 0 0 0 0 0 0 0 0 0 0.25 0"/>
<feBlend mode="normal" in2="BackgroundImageFix" result="effect1_dropShadow_93_6877"/>
<feBlend mode="normal" in="SourceGraphic" in2="effect1_dropShadow_93_6877" result="shape"/>
</filter>
<filter id="filter4_d_93_6877" x="18.1912" y="9.97155" width="1.02638" height="0.33351" filterUnits="userSpaceOnUse" color-interpolation-filters="sRGB">
<feFlood flood-opacity="0" result="BackgroundImageFix"/>
<feColorMatrix in="SourceAlpha" type="matrix" values="0 0 0 0 0 0 0 0 0 0 0 0 0 0 0 0 0 0 127 0" result="hardAlpha"/>
<feOffset dy="0.0313756"/>
<feGaussianBlur stdDeviation="0.0313756"/>
<feComposite in2="hardAlpha" operator="out"/>
<feColorMatrix type="matrix" values="0 0 0 0 0 0 0 0 0 0 0 0 0 0 0 0 0 0 0.25 0"/>
<feBlend mode="normal" in2="BackgroundImageFix" result="effect1_dropShadow_93_6877"/>
<feBlend mode="normal" in="SourceGraphic" in2="effect1_dropShadow_93_6877" result="shape"/>
</filter>
<filter id="filter5_d_93_6877" x="6.87768" y="14.4384" width="0.83644" height="0.704604" filterUnits="userSpaceOnUse" color-interpolation-filters="sRGB">
<feFlood flood-opacity="0" result="BackgroundImageFix"/>
<feColorMatrix in="SourceAlpha" type="matrix" values="0 0 0 0 0 0 0 0 0 0 0 0 0 0 0 0 0 0 127 0" result="hardAlpha"/>
<feOffset dy="0.0313756"/>
<feGaussianBlur stdDeviation="0.0313756"/>
<feComposite in2="hardAlpha" operator="out"/>
<feColorMatrix type="matrix" values="0 0 0 0 0 0 0 0 0 0 0 0 0 0 0 0 0 0 0.25 0"/>
<feBlend mode="normal" in2="BackgroundImageFix" result="effect1_dropShadow_93_6877"/>
<feBlend mode="normal" in="SourceGraphic" in2="effect1_dropShadow_93_6877" result="shape"/>
</filter>
<filter id="filter6_d_93_6877" x="17.1247" y="6.27136" width="0.83644" height="0.704604" filterUnits="userSpaceOnUse" color-interpolation-filters="sRGB">
<feFlood flood-opacity="0" result="BackgroundImageFix"/>
<feColorMatrix in="SourceAlpha" type="matrix" values="0 0 0 0 0 0 0 0 0 0 0 0 0 0 0 0 0 0 127 0" result="hardAlpha"/>
<feOffset dy="0.0313756"/>
<feGaussianBlur stdDeviation="0.0313756"/>
<feComposite in2="hardAlpha" operator="out"/>
<feColorMatrix type="matrix" values="0 0 0 0 0 0 0 0 0 0 0 0 0 0 0 0 0 0 0.25 0"/>
<feBlend mode="normal" in2="BackgroundImageFix" result="effect1_dropShadow_93_6877"/>
<feBlend mode="normal" in="SourceGraphic" in2="effect1_dropShadow_93_6877" result="shape"/>
</filter>
<filter id="filter7_d_93_6877" x="9.42748" y="16.0634" width="0.480483" height="0.96437" filterUnits="userSpaceOnUse" color-interpolation-filters="sRGB">
<feFlood flood-opacity="0" result="BackgroundImageFix"/>
<feColorMatrix in="SourceAlpha" type="matrix" values="0 0 0 0 0 0 0 0 0 0 0 0 0 0 0 0 0 0 127 0" result="hardAlpha"/>
<feOffset dy="0.0313756"/>
<feGaussianBlur stdDeviation="0.0313756"/>
<feComposite in2="hardAlpha" operator="out"/>
<feColorMatrix type="matrix" values="0 0 0 0 0 0 0 0 0 0 0 0 0 0 0 0 0 0 0.25 0"/>
<feBlend mode="normal" in2="BackgroundImageFix" result="effect1_dropShadow_93_6877"/>
<feBlend mode="normal" in="SourceGraphic" in2="effect1_dropShadow_93_6877" result="shape"/>
</filter>
<filter id="filter8_d_93_6877" x="14.0466" y="3.80066" width="0.480483" height="0.96437" filterUnits="userSpaceOnUse" color-interpolation-filters="sRGB">
<feFlood flood-opacity="0" result="BackgroundImageFix"/>
<feColorMatrix in="SourceAlpha" type="matrix" values="0 0 0 0 0 0 0 0 0 0 0 0 0 0 0 0 0 0 127 0" result="hardAlpha"/>
<feOffset dy="0.0313756"/>
<feGaussianBlur stdDeviation="0.0313756"/>
<feComposite in2="hardAlpha" operator="out"/>
<feColorMatrix type="matrix" values="0 0 0 0 0 0 0 0 0 0 0 0 0 0 0 0 0 0 0.25 0"/>
<feBlend mode="normal" in2="BackgroundImageFix" result="effect1_dropShadow_93_6877"/>
<feBlend mode="normal" in="SourceGraphic" in2="effect1_dropShadow_93_6877" result="shape"/>
</filter>
<filter id="filter9_d_93_6877" x="5.98657" y="4.7821" width="12.1162" height="12.3433" filterUnits="userSpaceOnUse" color-interpolation-filters="sRGB">
<feFlood flood-opacity="0" result="BackgroundImageFix"/>
<feColorMatrix in="SourceAlpha" type="matrix" values="0 0 0 0 0 0 0 0 0 0 0 0 0 0 0 0 0 0 127 0" result="hardAlpha"/>
<feOffset dy="0.0313756"/>
<feGaussianBlur stdDeviation="0.0313756"/>
<feComposite in2="hardAlpha" operator="out"/>
<feColorMatrix type="matrix" values="0 0 0 0 0 0 0 0 0 0 0 0 0 0 0 0 0 0 0.25 0"/>
<feBlend mode="normal" in2="BackgroundImageFix" result="effect1_dropShadow_93_6877"/>
<feBlend mode="normal" in="SourceGraphic" in2="effect1_dropShadow_93_6877" result="shape"/>
</filter>
<filter id="filter10_d_93_6877" x="15.1545" y="16.2245" width="0.612807" height="0.900893" filterUnits="userSpaceOnUse" color-interpolation-filters="sRGB">
<feFlood flood-opacity="0" result="BackgroundImageFix"/>
<feColorMatrix in="SourceAlpha" type="matrix" values="0 0 0 0 0 0 0 0 0 0 0 0 0 0 0 0 0 0 127 0" result="hardAlpha"/>
<feOffset dy="0.0313756"/>
<feGaussianBlur stdDeviation="0.0313756"/>
<feComposite in2="hardAlpha" operator="out"/>
<feColorMatrix type="matrix" values="0 0 0 0 0 0 0 0 0 0 0 0 0 0 0 0 0 0 0.25 0"/>
<feBlend mode="normal" in2="BackgroundImageFix" result="effect1_dropShadow_93_6877"/>
<feBlend mode="normal" in="SourceGraphic" in2="effect1_dropShadow_93_6877" result="shape"/>
</filter>
<filter id="filter11_d_93_6877" x="7.96996" y="4.7821" width="0.612807" height="0.900893" filterUnits="userSpaceOnUse" color-interpolation-filters="sRGB">
<feFlood flood-opacity="0" result="BackgroundImageFix"/>
<feColorMatrix in="SourceAlpha" type="matrix" values="0 0 0 0 0 0 0 0 0 0 0 0 0 0 0 0 0 0 127 0" result="hardAlpha"/>
<feOffset dy="0.0313756"/>
<feGaussianBlur stdDeviation="0.0313756"/>
<feComposite in2="hardAlpha" operator="out"/>
<feColorMatrix type="matrix" values="0 0 0 0 0 0 0 0 0 0 0 0 0 0 0 0 0 0 0.25 0"/>
<feBlend mode="normal" in2="BackgroundImageFix" result="effect1_dropShadow_93_6877"/>
<feBlend mode="normal" in="SourceGraphic" in2="effect1_dropShadow_93_6877" result="shape"/>
</filter>
<filter id="filter12_d_93_6877" x="17.1545" y="13.5077" width="0.948256" height="0.520034" filterUnits="userSpaceOnUse" color-interpolation-filters="sRGB">
<feFlood flood-opacity="0" result="BackgroundImageFix"/>
<feColorMatrix in="SourceAlpha" type="matrix" values="0 0 0 0 0 0 0 0 0 0 0 0 0 0 0 0 0 0 127 0" result="hardAlpha"/>
<feOffset dy="0.0313756"/>
<feGaussianBlur stdDeviation="0.0313756"/>
<feComposite in2="hardAlpha" operator="out"/>
<feColorMatrix type="matrix" values="0 0 0 0 0 0 0 0 0 0 0 0 0 0 0 0 0 0 0.25 0"/>
<feBlend mode="normal" in2="BackgroundImageFix" result="effect1_dropShadow_93_6877"/>
<feBlend mode="normal" in="SourceGraphic" in2="effect1_dropShadow_93_6877" result="shape"/>
</filter>
<filter id="filter13_d_93_6877" x="5.98657" y="7.83581" width="0.886733" height="0.635268" filterUnits="userSpaceOnUse" color-interpolation-filters="sRGB">
<feFlood flood-opacity="0" result="BackgroundImageFix"/>
<feColorMatrix in="SourceAlpha" type="matrix" values="0 0 0 0 0 0 0 0 0 0 0 0 0 0 0 0 0 0 127 0" result="hardAlpha"/>
<feOffset dy="0.0313756"/>
<feGaussianBlur stdDeviation="0.0313756"/>
<feComposite in2="hardAlpha" operator="out"/>
<feColorMatrix type="matrix" values="0 0 0 0 0 0 0 0 0 0 0 0 0 0 0 0 0 0 0.25 0"/>
<feBlend mode="normal" in2="BackgroundImageFix" result="effect1_dropShadow_93_6877"/>
<feBlend mode="normal" in="SourceGraphic" in2="effect1_dropShadow_93_6877" result="shape"/>
</filter>
<filter id="filter14_i_93_6877" x="13.1045" y="6.29492" width="2.33838" height="4.55762" filterUnits="userSpaceOnUse" color-interpolation-filters="sRGB">
<feFlood flood-opacity="0" result="BackgroundImageFix"/>
<feBlend mode="normal" in="SourceGraphic" in2="BackgroundImageFix" result="shape"/>
<feColorMatrix in="SourceAlpha" type="matrix" values="0 0 0 0 0 0 0 0 0 0 0 0 0 0 0 0 0 0 127 0" result="hardAlpha"/>
<feOffset dx="-0.0313756" dy="0.0313756"/>
<feComposite in2="hardAlpha" operator="arithmetic" k2="-1" k3="1"/>
<feColorMatrix type="matrix" values="0 0 0 0 0 0 0 0 0 0 0 0 0 0 0 0 0 0 0.4 0"/>
<feBlend mode="normal" in2="shape" result="effect1_innerShadow_93_6877"/>
</filter>
<filter id="filter15_i_93_6877" x="8.65039" y="6.77148" width="2.33838" height="4.55762" filterUnits="userSpaceOnUse" color-interpolation-filters="sRGB">
<feFlood flood-opacity="0" result="BackgroundImageFix"/>
<feBlend mode="normal" in="SourceGraphic" in2="BackgroundImageFix" result="shape"/>
<feColorMatrix in="SourceAlpha" type="matrix" values="0 0 0 0 0 0 0 0 0 0 0 0 0 0 0 0 0 0 127 0" result="hardAlpha"/>
<feOffset dx="-0.0313756" dy="0.0313756"/>
<feComposite in2="hardAlpha" operator="arithmetic" k2="-1" k3="1"/>
<feColorMatrix type="matrix" values="0 0 0 0 0 0 0 0 0 0 0 0 0 0 0 0 0 0 0.4 0"/>
<feBlend mode="normal" in2="shape" result="effect1_innerShadow_93_6877"/>
</filter>
<filter id="filter16_i_93_6877" x="16.4194" y="12.0908" width="7.56055" height="7.56445" filterUnits="userSpaceOnUse" color-interpolation-filters="sRGB">
<feFlood flood-opacity="0" result="BackgroundImageFix"/>
<feBlend mode="normal" in="SourceGraphic" in2="BackgroundImageFix" result="shape"/>
<feColorMatrix in="SourceAlpha" type="matrix" values="0 0 0 0 0 0 0 0 0 0 0 0 0 0 0 0 0 0 127 0" result="hardAlpha"/>
<feOffset dy="-0.0627513"/>
<feComposite in2="hardAlpha" operator="arithmetic" k2="-1" k3="1"/>
<feColorMatrix type="matrix" values="0 0 0 0 0 0 0 0 0 0 0 0 0 0 0 0 0 0 0.2 0"/>
<feBlend mode="normal" in2="shape" result="effect1_innerShadow_93_6877"/>
</filter>
<filter id="filter17_i_93_6877" x="2.64941" y="12.2773" width="7.05615" height="7.06055" filterUnits="userSpaceOnUse" color-interpolation-filters="sRGB">
<feFlood flood-opacity="0" result="BackgroundImageFix"/>
<feBlend mode="normal" in="SourceGraphic" in2="BackgroundImageFix" result="shape"/>
<feColorMatrix in="SourceAlpha" type="matrix" values="0 0 0 0 0 0 0 0 0 0 0 0 0 0 0 0 0 0 127 0" result="hardAlpha"/>
<feOffset dy="-0.0627513"/>
<feComposite in2="hardAlpha" operator="arithmetic" k2="-1" k3="1"/>
<feColorMatrix type="matrix" values="0 0 0 0 0 0 0 0 0 0 0 0 0 0 0 0 0 0 0.2 0"/>
<feBlend mode="normal" in2="shape" result="effect1_innerShadow_93_6877"/>
</filter>
<linearGradient id="paint0_linear_93_6877" x1="3.02713" y1="15.714" x2="1.11725" y2="17.2169" gradientUnits="userSpaceOnUse">
<stop stop-color="#A7A2C9"/>
<stop offset="1" stop-color="#312D46"/>
</linearGradient>
<linearGradient id="paint1_linear_93_6877" x1="5.37614" y1="10.28" x2="5.37614" y2="13.0928" gradientUnits="userSpaceOnUse">
<stop stop-color="white"/>
<stop offset="1" stop-color="#E6B28A"/>
</linearGradient>
<linearGradient id="paint2_linear_93_6877" x1="13.7137" y1="0.938031" x2="15.7609" y2="20.0693" gradientUnits="userSpaceOnUse">
<stop stop-color="#FF6464"/>
<stop offset="1" stop-color="#A92837"/>
</linearGradient>
<linearGradient id="paint3_linear_93_6877" x1="11.4769" y1="1.17733" x2="13.5241" y2="20.3086" gradientUnits="userSpaceOnUse">
<stop stop-color="white"/>
<stop offset="1" stop-color="#FFA4A4"/>
</linearGradient>
<linearGradient id="paint4_linear_93_6877" x1="11.4769" y1="1.17733" x2="13.5241" y2="20.3086" gradientUnits="userSpaceOnUse">
<stop stop-color="#FF99A6"/>
<stop offset="1" stop-color="#FF4545"/>
</linearGradient>
<linearGradient id="paint5_linear_93_6877" x1="11.6856" y1="3.01809" x2="11.8101" y2="4.18095" gradientUnits="userSpaceOnUse">
<stop stop-color="#6C6C6C"/>
<stop offset="1"/>
</linearGradient>
<linearGradient id="paint6_linear_93_6877" x1="13.2188" y1="17.3599" x2="13.3329" y2="18.4258" gradientUnits="userSpaceOnUse">
<stop stop-color="#6C6C6C"/>
<stop offset="1"/>
</linearGradient>
<linearGradient id="paint7_linear_93_6877" x1="5.66604" y1="10.9989" x2="6.53819" y2="10.9056" gradientUnits="userSpaceOnUse">
<stop stop-color="#6C6C6C"/>
<stop offset="1"/>
</linearGradient>
<linearGradient id="paint8_linear_93_6877" x1="18.2637" y1="9.65128" x2="19.0389" y2="9.56832" gradientUnits="userSpaceOnUse">
<stop stop-color="#6C6C6C"/>
<stop offset="1"/>
</linearGradient>
<linearGradient id="paint9_linear_93_6877" x1="7.28333" y1="15.4086" x2="7.93185" y2="14.8916" gradientUnits="userSpaceOnUse">
<stop stop-color="#6C6C6C"/>
<stop offset="1"/>
</linearGradient>
<linearGradient id="paint10_linear_93_6877" x1="17.5304" y1="7.24158" x2="18.1789" y2="6.72465" gradientUnits="userSpaceOnUse">
<stop stop-color="#6C6C6C"/>
<stop offset="1"/>
</linearGradient>
<linearGradient id="paint11_linear_93_6877" x1="9.98937" y1="17.0786" x2="10.2818" y2="16.3026" gradientUnits="userSpaceOnUse">
<stop stop-color="#6C6C6C"/>
<stop offset="1"/>
</linearGradient>
<linearGradient id="paint12_linear_93_6877" x1="14.6085" y1="4.81595" x2="14.9009" y2="4.03989" gradientUnits="userSpaceOnUse">
<stop stop-color="#6C6C6C"/>
<stop offset="1"/>
</linearGradient>
<linearGradient id="paint13_linear_93_6877" x1="16.1028" y1="16.744" x2="15.6782" y2="16.0316" gradientUnits="userSpaceOnUse">
<stop stop-color="#6C6C6C"/>
<stop offset="1"/>
</linearGradient>
<linearGradient id="paint14_linear_93_6877" x1="8.91825" y1="5.3016" x2="8.49361" y2="4.58923" gradientUnits="userSpaceOnUse">
<stop stop-color="#6C6C6C"/>
<stop offset="1"/>
</linearGradient>
<linearGradient id="paint15_linear_93_6877" x1="18.2088" y1="13.4441" x2="17.4488" y2="13.1123" gradientUnits="userSpaceOnUse">
<stop stop-color="#6C6C6C"/>
<stop offset="1"/>
</linearGradient>
<linearGradient id="paint16_linear_93_6877" x1="7.04871" y1="7.92449" x2="6.35007" y2="7.47763" gradientUnits="userSpaceOnUse">
<stop stop-color="#6C6C6C"/>
<stop offset="1"/>
</linearGradient>
<linearGradient id="paint17_linear_93_6877" x1="0.663466" y1="0" x2="0.663466" y2="2.15627" gradientUnits="userSpaceOnUse">
<stop stop-color="#A4948C"/>
<stop offset="1" stop-color="#332721"/>
</linearGradient>
<linearGradient id="paint18_linear_93_6877" x1="0.663466" y1="0" x2="0.663466" y2="2.15627" gradientUnits="userSpaceOnUse">
<stop stop-color="#A4948C"/>
<stop offset="1" stop-color="#332721"/>
</linearGradient>
<linearGradient id="paint19_linear_93_6877" x1="0.937617" y1="0" x2="0.937617" y2="3.48138" gradientUnits="userSpaceOnUse">
<stop stop-color="white"/>
<stop offset="1" stop-color="#E6B28A"/>
</linearGradient>
<linearGradient id="paint20_linear_93_6877" x1="0.4976" y1="0" x2="0.4976" y2="1.4928" gradientUnits="userSpaceOnUse">
<stop stop-color="#A4948C"/>
<stop offset="1" stop-color="#332721"/>
</linearGradient>
<linearGradient id="paint21_linear_93_6877" x1="23.574" y1="15.7743" x2="25.6203" y2="17.3845" gradientUnits="userSpaceOnUse">
<stop stop-color="#A7A2C9"/>
<stop offset="1" stop-color="#312D46"/>
</linearGradient>
<linearGradient id="paint22_linear_93_6877" x1="23.3783" y1="15.8357" x2="23.3783" y2="19.4232" gradientUnits="userSpaceOnUse">
<stop stop-color="white"/>
<stop offset="1" stop-color="#DBDBDB"/>
</linearGradient>
<linearGradient id="paint23_linear_93_6877" x1="13.0039" y1="16.0332" x2="20.7916" y2="20.4642" gradientUnits="userSpaceOnUse">
<stop stop-color="white"/>
<stop offset="1" stop-color="#E4E4E4"/>
</linearGradient>
<linearGradient id="paint24_linear_93_6877" x1="1.11612" y1="0" x2="1.11612" y2="3.34836" gradientUnits="userSpaceOnUse">
<stop stop-color="white"/>
<stop offset="1" stop-color="#DBDBDB"/>
</linearGradient>
<linearGradient id="paint25_linear_93_6877" x1="12.8934" y1="15.9566" x2="5.62494" y2="20.0922" gradientUnits="userSpaceOnUse">
<stop stop-color="white"/>
<stop offset="1" stop-color="#E4E4E4"/>
</linearGradient>
</defs>
</svg>
